<svg xmlns="http://www.w3.org/2000/svg" width="700" height="80" viewBox="0 0 700 80" shape-rendering="crispEdges"><clipPath id="cs-noon-laptop-9344-c"><rect width="700" height="80" rx="8"/></clipPath><g clip-path="url(#cs-noon-laptop-9344-c)"><defs><pattern id="cs-noon-laptop-9344-g" width="5" height="2.5" patternUnits="userSpaceOnUse"><rect x="0" y="0" width="1" height="2.5" fill="#b8ddf6" opacity="0.8"/></pattern><pattern id="cs-noon-laptop-9344-h" width="2.5" height="5" patternUnits="userSpaceOnUse"><rect x="0" y="0" width="2.5" height="1" fill="#b8ddf6" opacity="0.8"/></pattern><pattern id="cs-noon-laptop-9344-o" width="5" height="5" patternUnits="userSpaceOnUse"><rect x="1.25" y="1.25" width="2.5" height="2.5" fill="#7fb8e6" opacity="0.55"/></pattern><pattern id="cs-noon-laptop-9344-p" width="20" height="7.5" patternUnits="userSpaceOnUse"><rect x="0" y="5" width="20" height="1" fill="#dbd4c6"/><rect x="7.5" y="0" width="1" height="5" fill="#dbd4c6"/></pattern><pattern id="cs-noon-laptop-9344-d1" width="5" height="2.5" patternUnits="userSpaceOnUse"><rect x="0" y="0" width="2.5" height="2.5" fill="#3f8ef0"/><rect x="2.5" y="0" width="2.5" height="2.5" fill="#56a0f3"/></pattern><pattern id="cs-noon-laptop-9344-d2" width="5" height="2.5" patternUnits="userSpaceOnUse"><rect x="0" y="0" width="2.5" height="2.5" fill="#56a0f3"/><rect x="2.5" y="0" width="2.5" height="2.5" fill="#71b2f5"/></pattern><pattern id="cs-noon-laptop-9344-d3" width="5" height="2.5" patternUnits="userSpaceOnUse"><rect x="0" y="0" width="2.5" height="2.5" fill="#71b2f5"/><rect x="2.5" y="0" width="2.5" height="2.5" fill="#93c6f7"/></pattern><pattern id="cs-noon-laptop-9344-d4" width="5" height="2.5" patternUnits="userSpaceOnUse"><rect x="0" y="0" width="2.5" height="2.5" fill="#93c6f7"/><rect x="2.5" y="0" width="2.5" height="2.5" fill="#b7daf9"/></pattern></defs><rect x="0" y="0" width="700" height="15" fill="#3f8ef0"/><rect x="0" y="12.5" width="700" height="15" fill="#56a0f3"/><rect x="0" y="25" width="700" height="15" fill="#71b2f5"/><rect x="0" y="37.5" width="700" height="15" fill="#93c6f7"/><rect x="0" y="50" width="700" height="15" fill="#b7daf9"/><rect x="0" y="12.5" width="700" height="2.5" fill="url(#cs-noon-laptop-9344-d1)"/><rect x="0" y="25" width="700" height="2.5" fill="url(#cs-noon-laptop-9344-d2)"/><rect x="0" y="37.5" width="700" height="2.5" fill="url(#cs-noon-laptop-9344-d3)"/><rect x="0" y="50" width="700" height="2.5" fill="url(#cs-noon-laptop-9344-d4)"/><rect x="287.5" y="-2.5" width="12.5" height="2.5" opacity="0.35" fill="#fff7b8"/><rect x="282.5" y="0" width="22.5" height="2.5" opacity="0.35" fill="#fff7b8"/><rect x="280" y="2.5" width="27.5" height="2.5" opacity="0.35" fill="#fff7b8"/><rect x="280" y="5" width="30" height="2.5" opacity="0.35" fill="#fff7b8"/><rect x="277.5" y="7.5" width="32.5" height="2.5" opacity="0.35" fill="#fff7b8"/><rect x="277.5" y="10" width="32.5" height="2.5" opacity="0.35" fill="#fff7b8"/><rect x="277.5" y="12.5" width="35" height="2.5" opacity="0.35" fill="#fff7b8"/><rect x="277.5" y="15" width="35" height="2.5" opacity="0.35" fill="#fff7b8"/><rect x="277.5" y="17.5" width="32.5" height="2.5" opacity="0.35" fill="#fff7b8"/><rect x="277.5" y="20" width="32.5" height="2.5" opacity="0.35" fill="#fff7b8"/><rect x="280" y="22.5" width="30" height="2.5" opacity="0.35" fill="#fff7b8"/><rect x="280" y="25" width="27.5" height="2.5" opacity="0.35" fill="#fff7b8"/><rect x="282.5" y="27.5" width="22.5" height="2.5" opacity="0.35" fill="#fff7b8"/><rect x="287.5" y="30" width="12.5" height="2.5" opacity="0.35" fill="#fff7b8"/><rect x="290" y="5" width="10" height="2.5" fill="#fff27a"/><rect x="285" y="7.5" width="17.5" height="2.5" fill="#fff27a"/><rect x="285" y="10" width="17.5" height="2.5" fill="#fff27a"/><rect x="285" y="12.5" width="20" height="2.5" fill="#fff27a"/><rect x="285" y="15" width="20" height="2.5" fill="#fff27a"/><rect x="285" y="17.5" width="17.5" height="2.5" fill="#fff27a"/><rect x="285" y="20" width="17.5" height="2.5" fill="#fff27a"/><rect x="290" y="22.5" width="10" height="2.5" fill="#fff27a"/><g><rect x="7.5" y="20" width="18.75" height="3.75" fill="#ffffff"/><rect x="0" y="23.75" width="37.5" height="3.75" fill="#ffffff"/><rect x="3.75" y="27.5" width="30" height="3.75" fill="#dbe9f7"/><animateTransform attributeName="transform" type="translate" values="700 0;-40 0" dur="200.72s" begin="-0s" repeatCount="indefinite"/></g><g><rect x="7.5" y="7.5" width="18.75" height="3.75" fill="#ffffff"/><rect x="0" y="11.25" width="37.5" height="3.75" fill="#ffffff"/><rect x="3.75" y="15" width="30" height="3.75" fill="#dbe9f7"/><animateTransform attributeName="transform" type="translate" values="700 0;-40 0" dur="216.13s" begin="-72.04s" repeatCount="indefinite"/></g><g><rect x="5" y="17.5" width="12.5" height="2.5" fill="#ffffff"/><rect x="0" y="20" width="25" height="2.5" fill="#ffffff"/><rect x="2.5" y="22.5" width="20" height="2.5" fill="#dbe9f7"/><animateTransform attributeName="transform" type="translate" values="700 0;-40 0" dur="158.47s" begin="-105.65s" repeatCount="indefinite"/></g><path d="M0 62.5 V45 H5 H10 V47.5 H15 H20 H25 V50 H30 H35 H40 H45 H50 H55 H60 H65 V47.5 H70 H75 V45 H80 H85 H90 V42.5 H95 H100 H105 H110 H115 H120 H125 H130 V45 H135 H140 H145 H150 V42.5 H155 H160 H165 H170 V40 H175 H180 H185 H190 H195 H200 H205 V42.5 H210 H215 V45 H220 H225 V47.5 H230 H235 V50 H240 H245 H250 H255 H260 V47.5 H265 H270 H275 H280 H285 V45 H290 V47.5 H295 H300 H305 H310 H315 H320 H325 V50 H330 H335 V47.5 H340 H345 H350 V45 H355 H360 V42.5 H365 H370 V40 H375 H380 H385 H390 H395 H400 H405 H410 V42.5 H415 H420 H425 V45 H430 H435 H440 H445 H450 H455 V42.5 H460 H465 H470 H475 H480 H485 V45 H490 H495 H500 V47.5 H505 H510 V50 H515 H520 H525 H530 H535 H540 H545 H550 V47.5 H555 H560 H565 V45 H570 H575 H580 H585 H590 H595 H600 H605 H610 H615 H620 H625 H630 H635 V42.5 H640 H645 H650 V40 H655 H660 H665 H670 H675 H680 H685 H690 V42.5 H695 H700 V45 H700 V62.5 Z" fill="#d4c27c"/><rect x="0" y="52.5" width="700" height="10" fill="#5ea9e4"/><g><rect x="210" y="55" width="7.5" height="1.25" fill="#d5ecfb" opacity="0.7"/><animate attributeName="opacity" values="0.8;0.2;0.8" dur="3.52s" begin="-1.77s" repeatCount="indefinite"/></g><g><rect x="595" y="57.5" width="7.5" height="1.25" fill="#d5ecfb" opacity="0.7"/><animate attributeName="opacity" values="0.8;0.2;0.8" dur="3.54s" begin="-1.14s" repeatCount="indefinite"/></g><g><rect x="382.5" y="60" width="7.5" height="1.25" fill="#d5ecfb" opacity="0.7"/><animate attributeName="opacity" values="0.8;0.2;0.8" dur="4.07s" begin="-1.51s" repeatCount="indefinite"/></g><g><rect x="665" y="55" width="7.5" height="1.25" fill="#d5ecfb" opacity="0.7"/><animate attributeName="opacity" values="0.8;0.2;0.8" dur="4.53s" begin="-2.53s" repeatCount="indefinite"/></g><g><rect x="5" y="57.5" width="7.5" height="1.25" fill="#d5ecfb" opacity="0.7"/><animate attributeName="opacity" values="0.8;0.2;0.8" dur="5.73s" begin="-0.91s" repeatCount="indefinite"/></g><g><rect x="675" y="60" width="7.5" height="1.25" fill="#d5ecfb" opacity="0.7"/><animate attributeName="opacity" values="0.8;0.2;0.8" dur="4.64s" begin="-2.08s" repeatCount="indefinite"/></g><rect x="15" y="47.5" width="2.5" height="2" fill="#e0582f"/><rect x="17.5" y="47.5" width="2.5" height="2" fill="#e0582f"/><rect x="20" y="47.5" width="2.5" height="2" fill="#e0582f"/><rect x="22.5" y="45" width="2.5" height="2" fill="#e0582f"/><rect x="25" y="45" width="2.5" height="2" fill="#e0582f"/><rect x="27.5" y="42.5" width="2.5" height="2" fill="#e0582f"/><rect x="30" y="40" width="2.5" height="2" fill="#e0582f"/><rect x="32.5" y="40" width="2.5" height="2" fill="#e0582f"/><rect x="35" y="37.5" width="2.5" height="2" fill="#e0582f"/><rect x="37.5" y="35" width="2.5" height="2" fill="#e0582f"/><rect x="40" y="35" width="2.5" height="2" fill="#e0582f"/><rect x="42.5" y="32.5" width="2.5" height="2" fill="#e0582f"/><rect x="45" y="30" width="2.5" height="2" fill="#e0582f"/><rect x="47.5" y="27.5" width="2.5" height="2" fill="#e0582f"/><rect x="50" y="25" width="2.5" height="2" fill="#e0582f"/><rect x="52.5" y="22.5" width="2.5" height="2" fill="#e0582f"/><rect x="55" y="20" width="2.5" height="2" fill="#e0582f"/><rect x="57.5" y="17.5" width="2.5" height="2" fill="#e0582f"/><rect x="60" y="15" width="2.5" height="2" fill="#e0582f"/><rect x="62.5" y="17.5" width="2.5" height="2" fill="#e0582f"/><rect x="65" y="20" width="2.5" height="2" fill="#e0582f"/><rect x="67.5" y="22.5" width="2.5" height="2" fill="#e0582f"/><rect x="68.5" y="24.5" width="0.75" height="23" fill="#e0582f" opacity="0.6"/><rect x="70" y="25" width="2.5" height="2" fill="#e0582f"/><rect x="72.5" y="25" width="2.5" height="2" fill="#e0582f"/><rect x="75" y="27.5" width="2.5" height="2" fill="#e0582f"/><rect x="76" y="29.5" width="0.75" height="18" fill="#e0582f" opacity="0.6"/><rect x="77.5" y="30" width="2.5" height="2" fill="#e0582f"/><rect x="80" y="30" width="2.5" height="2" fill="#e0582f"/><rect x="82.5" y="32.5" width="2.5" height="2" fill="#e0582f"/><rect x="83.5" y="34.5" width="0.75" height="13" fill="#e0582f" opacity="0.6"/><rect x="85" y="35" width="2.5" height="2" fill="#e0582f"/><rect x="87.5" y="35" width="2.5" height="2" fill="#e0582f"/><rect x="90" y="37.5" width="2.5" height="2" fill="#e0582f"/><rect x="91" y="39.5" width="0.75" height="8" fill="#e0582f" opacity="0.6"/><rect x="92.5" y="37.5" width="2.5" height="2" fill="#e0582f"/><rect x="95" y="37.5" width="2.5" height="2" fill="#e0582f"/><rect x="97.5" y="40" width="2.5" height="2" fill="#e0582f"/><rect x="98.5" y="42" width="0.75" height="5.5" fill="#e0582f" opacity="0.6"/><rect x="100" y="40" width="2.5" height="2" fill="#e0582f"/><rect x="102.5" y="40" width="2.5" height="2" fill="#e0582f"/><rect x="105" y="42.5" width="2.5" height="2" fill="#e0582f"/><rect x="106" y="44.5" width="0.75" height="3" fill="#e0582f" opacity="0.6"/><rect x="107.5" y="42.5" width="2.5" height="2" fill="#e0582f"/><rect x="110" y="42.5" width="2.5" height="2" fill="#e0582f"/><rect x="112.5" y="42.5" width="2.5" height="2" fill="#e0582f"/><rect x="113.5" y="44.5" width="0.75" height="3" fill="#e0582f" opacity="0.6"/><rect x="115" y="42.5" width="2.5" height="2" fill="#e0582f"/><rect x="117.5" y="42.5" width="2.5" height="2" fill="#e0582f"/><rect x="120" y="42.5" width="2.5" height="2" fill="#e0582f"/><rect x="121" y="44.5" width="0.75" height="3" fill="#e0582f" opacity="0.6"/><rect x="122.5" y="42.5" width="2.5" height="2" fill="#e0582f"/><rect x="125" y="42.5" width="2.5" height="2" fill="#e0582f"/><rect x="127.5" y="42.5" width="2.5" height="2" fill="#e0582f"/><rect x="128.5" y="44.5" width="0.75" height="3" fill="#e0582f" opacity="0.6"/><rect x="130" y="40" width="2.5" height="2" fill="#e0582f"/><rect x="132.5" y="40" width="2.5" height="2" fill="#e0582f"/><rect x="135" y="40" width="2.5" height="2" fill="#e0582f"/><rect x="136" y="42" width="0.75" height="5.5" fill="#e0582f" opacity="0.6"/><rect x="137.5" y="37.5" width="2.5" height="2" fill="#e0582f"/><rect x="140" y="37.5" width="2.5" height="2" fill="#e0582f"/><rect x="142.5" y="37.5" width="2.5" height="2" fill="#e0582f"/><rect x="143.5" y="39.5" width="0.75" height="8" fill="#e0582f" opacity="0.6"/><rect x="145" y="35" width="2.5" height="2" fill="#e0582f"/><rect x="147.5" y="35" width="2.5" height="2" fill="#e0582f"/><rect x="150" y="32.5" width="2.5" height="2" fill="#e0582f"/><rect x="151" y="34.5" width="0.75" height="13" fill="#e0582f" opacity="0.6"/><rect x="152.5" y="30" width="2.5" height="2" fill="#e0582f"/><rect x="155" y="30" width="2.5" height="2" fill="#e0582f"/><rect x="157.5" y="27.5" width="2.5" height="2" fill="#e0582f"/><rect x="158.5" y="29.5" width="0.75" height="18" fill="#e0582f" opacity="0.6"/><rect x="160" y="25" width="2.5" height="2" fill="#e0582f"/><rect x="162.5" y="25" width="2.5" height="2" fill="#e0582f"/><rect x="165" y="22.5" width="2.5" height="2" fill="#e0582f"/><rect x="166" y="24.5" width="0.75" height="23" fill="#e0582f" opacity="0.6"/><rect x="167.5" y="20" width="2.5" height="2" fill="#e0582f"/><rect x="170" y="17.5" width="2.5" height="2" fill="#e0582f"/><rect x="172.5" y="15" width="2.5" height="2" fill="#e0582f"/><rect x="175" y="17.5" width="2.5" height="2" fill="#e0582f"/><rect x="177.5" y="20" width="2.5" height="2" fill="#e0582f"/><rect x="180" y="22.5" width="2.5" height="2" fill="#e0582f"/><rect x="182.5" y="25" width="2.5" height="2" fill="#e0582f"/><rect x="185" y="27.5" width="2.5" height="2" fill="#e0582f"/><rect x="187.5" y="30" width="2.5" height="2" fill="#e0582f"/><rect x="190" y="32.5" width="2.5" height="2" fill="#e0582f"/><rect x="192.5" y="35" width="2.5" height="2" fill="#e0582f"/><rect x="195" y="35" width="2.5" height="2" fill="#e0582f"/><rect x="197.5" y="37.5" width="2.5" height="2" fill="#e0582f"/><rect x="200" y="40" width="2.5" height="2" fill="#e0582f"/><rect x="202.5" y="40" width="2.5" height="2" fill="#e0582f"/><rect x="205" y="42.5" width="2.5" height="2" fill="#e0582f"/><rect x="207.5" y="45" width="2.5" height="2" fill="#e0582f"/><rect x="210" y="45" width="2.5" height="2" fill="#e0582f"/><rect x="212.5" y="47.5" width="2.5" height="2" fill="#e0582f"/><rect x="215" y="47.5" width="2.5" height="2" fill="#e0582f"/><rect x="217.5" y="47.5" width="2.5" height="2" fill="#e0582f"/><rect x="15" y="47.5" width="202.5" height="2.5" fill="#e0582f"/><rect x="15" y="50" width="202.5" height="1.25" fill="#e0582f" opacity="0.6"/><rect x="57.5" y="12.5" width="2.5" height="40" fill="#e0582f"/><rect x="62.5" y="12.5" width="2.5" height="40" fill="#e0582f"/><rect x="57.5" y="15" width="7.5" height="2.5" fill="#e0582f"/><rect x="57.5" y="25" width="7.5" height="2.5" fill="#e0582f"/><rect x="57.5" y="35" width="7.5" height="2.5" fill="#e0582f"/><rect x="170" y="12.5" width="2.5" height="40" fill="#e0582f"/><rect x="175" y="12.5" width="2.5" height="40" fill="#e0582f"/><rect x="170" y="15" width="7.5" height="2.5" fill="#e0582f"/><rect x="170" y="25" width="7.5" height="2.5" fill="#e0582f"/><rect x="170" y="35" width="7.5" height="2.5" fill="#e0582f"/><rect x="295" y="42.5" width="20" height="20" fill="#ecd8b4"/><rect x="297.5" y="45" width="15" height="15" fill="url(#cs-noon-laptop-9344-o)"/><rect x="293.75" y="42.5" width="22.5" height="2" fill="#f7f5ef"/><rect x="315" y="27.5" width="17.5" height="35" fill="#7fb8e6"/><rect x="315" y="27.5" width="17.5" height="35" fill="url(#cs-noon-laptop-9344-g)"/><polygon points="315,32.5 320,27.5 322.5,27.5 315,37.5" fill="#eaf7ff" opacity="0.5"/><rect x="315" y="27.5" width="17.5" height="1.5" fill="#b8ddf6"/><rect x="347.5" y="7.5" width="2.5" height="2.5" fill="#f7f5ef"/><rect x="347.5" y="10" width="2.5" height="2.5" fill="#f7f5ef"/><rect x="347.5" y="12.5" width="2.5" height="2.5" fill="#f7f5ef"/><rect x="346.25" y="15" width="5" height="2.5" fill="#f7f5ef"/><rect x="346.25" y="17.5" width="5" height="2.5" fill="#f7f5ef"/><rect x="346.25" y="20" width="5" height="2.5" fill="#f7f5ef"/><rect x="345" y="22.5" width="7.5" height="2.5" fill="#f7f5ef"/><rect x="345" y="25" width="7.5" height="2.5" fill="#f7f5ef"/><rect x="343.75" y="27.5" width="10" height="2.5" fill="#f7f5ef"/><rect x="343.75" y="30" width="10" height="2.5" fill="#f7f5ef"/><rect x="342.5" y="32.5" width="12.5" height="2.5" fill="#f7f5ef"/><rect x="342.5" y="35" width="12.5" height="2.5" fill="#f7f5ef"/><rect x="342.5" y="37.5" width="12.5" height="2.5" fill="#f7f5ef"/><rect x="341.25" y="40" width="15" height="2.5" fill="#f7f5ef"/><rect x="341.25" y="42.5" width="15" height="2.5" fill="#f7f5ef"/><rect x="340" y="45" width="17.5" height="2.5" fill="#f7f5ef"/><rect x="340" y="47.5" width="17.5" height="2.5" fill="#f7f5ef"/><rect x="340" y="50" width="17.5" height="2.5" fill="#f7f5ef"/><rect x="338.75" y="52.5" width="20" height="2.5" fill="#f7f5ef"/><rect x="338.75" y="55" width="20" height="2.5" fill="#f7f5ef"/><rect x="337.5" y="57.5" width="22.5" height="2.5" fill="#f7f5ef"/><rect x="337.5" y="60" width="22.5" height="2.5" fill="#f7f5ef"/><rect x="348" y="-2.5" width="1.5" height="10" fill="#f7f5ef"/><rect x="342" y="32.25" width="2.5" height="7.5" fill="#f7f5ef"/><rect x="353" y="32.25" width="2.5" height="7.5" fill="#f7f5ef"/><rect x="344.25" y="35" width="9" height="24.75" fill="url(#cs-noon-laptop-9344-o)"/><rect x="367.5" y="37.5" width="15" height="25" fill="#f7f5ef"/><rect x="370" y="40" width="10" height="20" fill="url(#cs-noon-laptop-9344-o)"/><rect x="366.25" y="37.5" width="17.5" height="2" fill="#f7f5ef"/><rect x="392.5" y="10" width="10" height="2.5" fill="#8fc2ea"/><rect x="390" y="12.5" width="15" height="2.5" fill="#8fc2ea"/><rect x="387.5" y="15" width="20" height="47.5" fill="#8fc2ea"/><rect x="387.5" y="15" width="20" height="47.5" fill="url(#cs-noon-laptop-9344-h)"/><rect x="415" y="32.5" width="15" height="30" fill="#7fb8e6"/><rect x="415" y="32.5" width="15" height="30" fill="url(#cs-noon-laptop-9344-g)"/><polygon points="415,37.5 420,32.5 422.5,32.5 415,42.5" fill="#eaf7ff" opacity="0.5"/><rect x="415" y="32.5" width="15" height="1.5" fill="#b8ddf6"/><rect x="435" y="22.5" width="20" height="40" fill="#8fc2ea"/><rect x="435" y="22.5" width="20" height="40" fill="url(#cs-noon-laptop-9344-g)"/><polygon points="435,27.5 440,22.5 442.5,22.5 435,32.5" fill="#eaf7ff" opacity="0.5"/><rect x="435" y="22.5" width="20" height="1.5" fill="#b8ddf6"/><rect x="462.5" y="45" width="17.5" height="17.5" fill="#e09a72"/><rect x="465" y="47.5" width="12.5" height="12.5" fill="url(#cs-noon-laptop-9344-o)"/><rect x="461.25" y="45" width="20" height="2" fill="#f7f5ef"/><rect x="235" y="45" width="15" height="17.5" fill="#f4b6c2"/><rect x="240" y="37.5" width="5" height="2.5" fill="#8a6a7a"/><rect x="237.5" y="40" width="10" height="2.5" fill="#8a6a7a"/><rect x="235" y="42.5" width="15" height="2.5" fill="#8a6a7a"/><rect x="235" y="45" width="15" height="1.25" fill="#ffffff"/><rect x="237.5" y="47.5" width="5" height="7.5" fill="#ffffff"/><rect x="238.5" y="48.5" width="3" height="5.5" fill="#7fb8e6"/><rect x="245" y="55" width="3" height="7.5" fill="#8a6a7a"/><rect x="243.75" y="61" width="5.5" height="1.5" fill="#ffffff"/><rect x="245" y="47.5" width="3" height="3.5" fill="#7fb8e6"/><rect x="252.5" y="45" width="15" height="17.5" fill="#a8d8c8"/><rect x="257.5" y="37.5" width="5" height="2.5" fill="#8a6a7a"/><rect x="255" y="40" width="10" height="2.5" fill="#8a6a7a"/><rect x="252.5" y="42.5" width="15" height="2.5" fill="#8a6a7a"/><rect x="252.5" y="45" width="15" height="1.25" fill="#ffffff"/><rect x="255" y="47.5" width="5" height="7.5" fill="#ffffff"/><rect x="256" y="48.5" width="3" height="5.5" fill="#7fb8e6"/><rect x="262.5" y="55" width="3" height="7.5" fill="#8a6a7a"/><rect x="261.25" y="61" width="5.5" height="1.5" fill="#ffffff"/><rect x="262.5" y="47.5" width="3" height="3.5" fill="#7fb8e6"/><rect x="270" y="45" width="15" height="17.5" fill="#f7e1a0"/><rect x="275" y="37.5" width="5" height="2.5" fill="#8a6a7a"/><rect x="272.5" y="40" width="10" height="2.5" fill="#8a6a7a"/><rect x="270" y="42.5" width="15" height="2.5" fill="#8a6a7a"/><rect x="270" y="45" width="15" height="1.25" fill="#ffffff"/><rect x="272.5" y="47.5" width="5" height="7.5" fill="#ffffff"/><rect x="273.5" y="48.5" width="3" height="5.5" fill="#7fb8e6"/><rect x="280" y="55" width="3" height="7.5" fill="#8a6a7a"/><rect x="278.75" y="61" width="5.5" height="1.5" fill="#ffffff"/><rect x="280" y="47.5" width="3" height="3.5" fill="#7fb8e6"/><rect x="287.5" y="45" width="15" height="17.5" fill="#b7c7ef"/><rect x="292.5" y="37.5" width="5" height="2.5" fill="#8a6a7a"/><rect x="290" y="40" width="10" height="2.5" fill="#8a6a7a"/><rect x="287.5" y="42.5" width="15" height="2.5" fill="#8a6a7a"/><rect x="287.5" y="45" width="15" height="1.25" fill="#ffffff"/><rect x="290" y="47.5" width="5" height="7.5" fill="#ffffff"/><rect x="291" y="48.5" width="3" height="5.5" fill="#7fb8e6"/><rect x="297.5" y="55" width="3" height="7.5" fill="#8a6a7a"/><rect x="296.25" y="61" width="5.5" height="1.5" fill="#ffffff"/><rect x="297.5" y="47.5" width="3" height="3.5" fill="#7fb8e6"/><rect x="477.5" y="60" width="2.5" height="2.5" fill="#a07c52"/><rect x="477.5" y="57.5" width="2.5" height="2.5" fill="#a07c52"/><rect x="477.5" y="55" width="2.5" height="2.5" fill="#a07c52"/><rect x="477.5" y="52.5" width="2.5" height="2.5" fill="#a07c52"/><rect x="477.5" y="50" width="2.5" height="2.5" fill="#a07c52"/><rect x="480" y="47.5" width="2.5" height="2.5" fill="#a07c52"/><rect x="480" y="45" width="2.5" height="2.5" fill="#a07c52"/><rect x="480" y="42.5" width="2.5" height="2.5" fill="#a07c52"/><rect x="480" y="40" width="2.5" height="2.5" fill="#a07c52"/><rect x="480" y="37.5" width="2.5" height="2.5" fill="#a07c52"/><rect x="482.5" y="35" width="2.5" height="2.5" fill="#a07c52"/><rect x="482.5" y="32.5" width="2.5" height="2.5" fill="#a07c52"/><rect x="482.5" y="30" width="2.5" height="2.5" fill="#a07c52"/><rect x="482.5" y="27.5" width="2.5" height="2.5" fill="#a07c52"/><g><rect x="480" y="25" width="2.5" height="2.5" fill="#4fa357"/><rect x="477.5" y="25" width="2.5" height="2.5" fill="#4fa357"/><rect x="475" y="27.5" width="2.5" height="2.5" fill="#4fa357"/><rect x="472.5" y="30" width="2.5" height="2.5" fill="#4fa357"/><rect x="485" y="25" width="2.5" height="2.5" fill="#4fa357"/><rect x="487.5" y="25" width="2.5" height="2.5" fill="#4fa357"/><rect x="490" y="27.5" width="2.5" height="2.5" fill="#4fa357"/><rect x="492.5" y="30" width="2.5" height="2.5" fill="#4fa357"/><rect x="480" y="22.5" width="2.5" height="2.5" fill="#4fa357"/><rect x="477.5" y="20" width="2.5" height="2.5" fill="#4fa357"/><rect x="485" y="22.5" width="2.5" height="2.5" fill="#4fa357"/><rect x="487.5" y="20" width="2.5" height="2.5" fill="#4fa357"/><rect x="482.5" y="22.5" width="2.5" height="2.5" fill="#4fa357"/><rect x="482.5" y="25" width="2.5" height="2.5" fill="#4fa357"/><animateTransform attributeName="transform" type="translate" values="0 0;1 0;0 0" dur="3.5s" begin="-0s" repeatCount="indefinite"/></g><rect x="495" y="60" width="2.5" height="2.5" fill="#a07c52"/><rect x="495" y="57.5" width="2.5" height="2.5" fill="#a07c52"/><rect x="495" y="55" width="2.5" height="2.5" fill="#a07c52"/><rect x="495" y="52.5" width="2.5" height="2.5" fill="#a07c52"/><rect x="495" y="50" width="2.5" height="2.5" fill="#a07c52"/><rect x="497.5" y="47.5" width="2.5" height="2.5" fill="#a07c52"/><rect x="497.5" y="45" width="2.5" height="2.5" fill="#a07c52"/><rect x="497.5" y="42.5" width="2.5" height="2.5" fill="#a07c52"/><rect x="497.5" y="40" width="2.5" height="2.5" fill="#a07c52"/><rect x="497.5" y="37.5" width="2.5" height="2.5" fill="#a07c52"/><rect x="500" y="35" width="2.5" height="2.5" fill="#a07c52"/><rect x="500" y="32.5" width="2.5" height="2.5" fill="#a07c52"/><rect x="500" y="30" width="2.5" height="2.5" fill="#a07c52"/><rect x="500" y="27.5" width="2.5" height="2.5" fill="#a07c52"/><g><rect x="497.5" y="25" width="2.5" height="2.5" fill="#4fa357"/><rect x="495" y="25" width="2.5" height="2.5" fill="#4fa357"/><rect x="492.5" y="27.5" width="2.5" height="2.5" fill="#4fa357"/><rect x="490" y="30" width="2.5" height="2.5" fill="#4fa357"/><rect x="502.5" y="25" width="2.5" height="2.5" fill="#4fa357"/><rect x="505" y="25" width="2.5" height="2.5" fill="#4fa357"/><rect x="507.5" y="27.5" width="2.5" height="2.5" fill="#4fa357"/><rect x="510" y="30" width="2.5" height="2.5" fill="#4fa357"/><rect x="497.5" y="22.5" width="2.5" height="2.5" fill="#4fa357"/><rect x="495" y="20" width="2.5" height="2.5" fill="#4fa357"/><rect x="502.5" y="22.5" width="2.5" height="2.5" fill="#4fa357"/><rect x="505" y="20" width="2.5" height="2.5" fill="#4fa357"/><rect x="500" y="22.5" width="2.5" height="2.5" fill="#4fa357"/><rect x="500" y="25" width="2.5" height="2.5" fill="#4fa357"/><animateTransform attributeName="transform" type="translate" values="0 0;1 0;0 0" dur="3.5s" begin="-1.3s" repeatCount="indefinite"/></g><rect x="0" y="62.5" width="700" height="17.5" fill="#efe9dd"/><rect x="0" y="65" width="700" height="15" fill="url(#cs-noon-laptop-9344-p)"/><rect x="0" y="62.5" width="700" height="2.5" fill="#d2cabb"/><rect x="522.5" y="30" width="2.5" height="32.5" fill="#5f6672"/><rect x="520" y="60" width="7.5" height="2.5" fill="#5f6672"/><rect x="520" y="27.5" width="7.5" height="2.5" fill="#5f6672"/><rect x="521.25" y="30" width="5" height="2.5" fill="#c8ccd4"/><g transform="translate(350 70)"><g><rect x="0" y="-5" width="7.5" height="5" fill="#8d93a6"/><rect x="1.25" y="-2.5" width="5" height="1.5" fill="#a9aec0"/><rect x="1.75" y="0" width="1.25" height="2.5" fill="#d98a5a"/><rect x="4.5" y="0" width="1.25" height="2.5" fill="#d98a5a"/><g><rect x="7.5" y="-7.5" width="3" height="3" fill="#6d7388"/><rect x="10.5" y="-6.5" width="1.5" height="1.25" fill="#e0a050"/><animateTransform attributeName="transform" type="translate" values="0 0;1.5 3;0 0" keyTimes="0;0.5;1" dur="0.8s" begin="-0s" repeatCount="indefinite"/></g><animateTransform attributeName="transform" type="translate" values="0 0;20 0;20 0;0 0;0 0" keyTimes="0;0.4;0.5;0.9;1" dur="14s" begin="-0s" repeatCount="indefinite"/></g></g><rect x="625" y="62.5" width="75" height="17.5" fill="#5ea9e4"/><rect x="625" y="62.5" width="75" height="2.5" fill="#d2cabb"/><rect x="625" y="52.5" width="75" height="2" fill="#ffffff"/><rect x="625" y="52.5" width="2" height="10" fill="#ffffff"/><rect x="635" y="52.5" width="2" height="10" fill="#ffffff"/><rect x="645" y="52.5" width="2" height="10" fill="#ffffff"/><rect x="655" y="52.5" width="2" height="10" fill="#ffffff"/><rect x="665" y="52.5" width="2" height="10" fill="#ffffff"/><rect x="675" y="52.5" width="2" height="10" fill="#ffffff"/><rect x="685" y="52.5" width="2" height="10" fill="#ffffff"/><rect x="695" y="52.5" width="2" height="10" fill="#ffffff"/><g><rect x="640" y="70" width="12.5" height="2.5" fill="#d5ecfb" opacity="0.8"/><animateTransform attributeName="transform" type="translate" values="0 0;5 0;0 0" dur="5s" begin="-0s" repeatCount="indefinite"/><animate attributeName="opacity" values="1;0.3;1" dur="3.5s" begin="-0s" repeatCount="indefinite"/></g><g><rect x="662.5" y="75" width="15" height="2.5" fill="#d5ecfb" opacity="0.8"/><animateTransform attributeName="transform" type="translate" values="0 0;5 0;0 0" dur="6s" begin="-2s" repeatCount="indefinite"/><animate attributeName="opacity" values="1;0.3;1" dur="4.2s" begin="-2s" repeatCount="indefinite"/></g><g><rect x="650" y="77.5" width="7.5" height="2.5" fill="#d5ecfb" opacity="0.8"/><animateTransform attributeName="transform" type="translate" values="0 0;5 0;0 0" dur="4s" begin="-1s" repeatCount="indefinite"/><animate attributeName="opacity" values="1;0.3;1" dur="2.8s" begin="-1s" repeatCount="indefinite"/></g><rect x="595" y="52.5" width="30" height="2.5" fill="#f2eee6"/><rect x="597.5" y="55" width="25" height="1.25" fill="#c9c3b8"/><rect x="608.75" y="55" width="2.5" height="7.5" fill="#5a5f6a"/><rect x="603.75" y="62.5" width="12.5" height="2" fill="#5a5f6a"/><rect x="618.25" y="47.5" width="4" height="5" fill="#ffffff"/><rect x="618.25" y="47.5" width="4" height="1.25" fill="#7a4a2a"/><rect x="622.25" y="48.75" width="1.5" height="2.5" fill="#ffffff"/><g><rect x="619.5" y="45" width="1.25" height="2.5" fill="#ffffff" opacity="0.7"/><animateTransform attributeName="transform" type="translate" values="0 0;1.5 -7.5" dur="2s" begin="-0s" repeatCount="indefinite"/><animate attributeName="opacity" values="0.8;0" dur="2s" begin="-0s" repeatCount="indefinite"/></g><rect x="600" y="50" width="17.5" height="2.5" fill="#9aa0aa"/><rect x="602.5" y="32.5" width="17.5" height="17.5" fill="#3a3f4a"/><rect x="605" y="35" width="12.5" height="12.5" fill="#141826"/><clipPath id="cs-noon-laptop-9344-s"><rect x="605" y="35" width="12.5" height="12.5"/></clipPath><g clip-path="url(#cs-noon-laptop-9344-s)"><g><rect x="606.25" y="36.25" width="2.5" height="1.5" fill="#6cb4ee"/><rect x="606.25" y="40" width="10" height="1.5" fill="#f9c74f"/><rect x="606.25" y="43.75" width="7.5" height="1.5" fill="#8bd48b"/><rect x="606.25" y="47.5" width="5" height="1.5" fill="#e58fbf"/><rect x="606.25" y="51.25" width="2.5" height="1.5" fill="#c49cf0"/><rect x="606.25" y="55" width="10" height="1.5" fill="#6cb4ee"/><rect x="606.25" y="58.75" width="2.5" height="1.5" fill="#6cb4ee"/><rect x="606.25" y="62.5" width="10" height="1.5" fill="#f9c74f"/><rect x="606.25" y="66.25" width="7.5" height="1.5" fill="#8bd48b"/><rect x="606.25" y="70" width="5" height="1.5" fill="#e58fbf"/><rect x="606.25" y="73.75" width="2.5" height="1.5" fill="#c49cf0"/><rect x="606.25" y="77.5" width="10" height="1.5" fill="#6cb4ee"/><animateTransform attributeName="transform" type="translate" values="0 0;0 -22.5" dur="4s" begin="-0s" repeatCount="indefinite"/></g></g><polygon points="602.5,35 602.5,47.5 565,65 565,37.5" fill="#9fd0ff" opacity="0.08"><animate attributeName="opacity" values="0.08;0.05;0.08" dur="2.3s" begin="-0s" repeatCount="indefinite"/></polygon><ellipse cx="573.75" cy="65" rx="16.25" ry="3" fill="#000000" opacity="0.22"/><g><g opacity="0.9"><g transform="translate(-1.25 0)"><rect x="560" y="40" width="27.5" height="5" fill="#2a1712"/><rect x="560" y="45" width="10" height="5" fill="#2a1712"/><rect x="570" y="45" width="2.5" height="5" fill="#2a1712"/><rect x="572.5" y="45" width="10" height="5" fill="#2a1712"/><rect x="582.5" y="45" width="2.5" height="5" fill="#2a1712"/><rect x="585" y="45" width="2.5" height="5" fill="#2a1712"/><rect x="560" y="50" width="32.5" height="5" fill="#2a1712"/><rect x="560" y="55" width="27.5" height="5" fill="#2a1712"/><rect x="562.5" y="60" width="2.5" height="5" fill="#2a1712"/><rect x="567.5" y="60" width="2.5" height="5" fill="#2a1712"/><rect x="577.5" y="60" width="2.5" height="5" fill="#2a1712"/><rect x="582.5" y="60" width="2.5" height="5" fill="#2a1712"/></g><g transform="translate(1.25 0)"><rect x="560" y="40" width="27.5" height="5" fill="#2a1712"/><rect x="560" y="45" width="10" height="5" fill="#2a1712"/><rect x="570" y="45" width="2.5" height="5" fill="#2a1712"/><rect x="572.5" y="45" width="10" height="5" fill="#2a1712"/><rect x="582.5" y="45" width="2.5" height="5" fill="#2a1712"/><rect x="585" y="45" width="2.5" height="5" fill="#2a1712"/><rect x="560" y="50" width="32.5" height="5" fill="#2a1712"/><rect x="560" y="55" width="27.5" height="5" fill="#2a1712"/><rect x="562.5" y="60" width="2.5" height="5" fill="#2a1712"/><rect x="567.5" y="60" width="2.5" height="5" fill="#2a1712"/><rect x="577.5" y="60" width="2.5" height="5" fill="#2a1712"/><rect x="582.5" y="60" width="2.5" height="5" fill="#2a1712"/></g><g transform="translate(0 -1.25)"><rect x="560" y="40" width="27.5" height="5" fill="#2a1712"/><rect x="560" y="45" width="10" height="5" fill="#2a1712"/><rect x="570" y="45" width="2.5" height="5" fill="#2a1712"/><rect x="572.5" y="45" width="10" height="5" fill="#2a1712"/><rect x="582.5" y="45" width="2.5" height="5" fill="#2a1712"/><rect x="585" y="45" width="2.5" height="5" fill="#2a1712"/><rect x="560" y="50" width="32.5" height="5" fill="#2a1712"/><rect x="560" y="55" width="27.5" height="5" fill="#2a1712"/><rect x="562.5" y="60" width="2.5" height="5" fill="#2a1712"/><rect x="567.5" y="60" width="2.5" height="5" fill="#2a1712"/><rect x="577.5" y="60" width="2.5" height="5" fill="#2a1712"/><rect x="582.5" y="60" width="2.5" height="5" fill="#2a1712"/></g><g transform="translate(0 1.25)"><rect x="560" y="40" width="27.5" height="5" fill="#2a1712"/><rect x="560" y="45" width="10" height="5" fill="#2a1712"/><rect x="570" y="45" width="2.5" height="5" fill="#2a1712"/><rect x="572.5" y="45" width="10" height="5" fill="#2a1712"/><rect x="582.5" y="45" width="2.5" height="5" fill="#2a1712"/><rect x="585" y="45" width="2.5" height="5" fill="#2a1712"/><rect x="560" y="50" width="32.5" height="5" fill="#2a1712"/><rect x="560" y="55" width="27.5" height="5" fill="#2a1712"/><rect x="562.5" y="60" width="2.5" height="5" fill="#2a1712"/><rect x="567.5" y="60" width="2.5" height="5" fill="#2a1712"/><rect x="577.5" y="60" width="2.5" height="5" fill="#2a1712"/><rect x="582.5" y="60" width="2.5" height="5" fill="#2a1712"/></g></g><rect x="560" y="40" width="27.5" height="5" fill="#d97757"/><rect x="560" y="45" width="10" height="5" fill="#d97757"/><rect x="570" y="45" width="2.5" height="5" fill="#000000"/><rect x="572.5" y="45" width="10" height="5" fill="#d97757"/><rect x="582.5" y="45" width="2.5" height="5" fill="#000000"/><rect x="585" y="45" width="2.5" height="5" fill="#d97757"/><rect x="560" y="50" width="32.5" height="5" fill="#d97757"/><rect x="560" y="55" width="27.5" height="5" fill="#d97757"/><rect x="562.5" y="60" width="2.5" height="5" fill="#d97757"/><rect x="567.5" y="60" width="2.5" height="5" fill="#d97757"/><rect x="577.5" y="60" width="2.5" height="5" fill="#d97757"/><rect x="582.5" y="60" width="2.5" height="5" fill="#d97757"/><animate attributeName="opacity" values="1;0" calcMode="discrete" dur="0.5s" begin="-0s" repeatCount="indefinite"/></g><g opacity="0"><g opacity="0.9"><g transform="translate(-1.25 0)"><rect x="560" y="40" width="27.5" height="5" fill="#2a1712"/><rect x="560" y="45" width="10" height="5" fill="#2a1712"/><rect x="570" y="45" width="2.5" height="5" fill="#2a1712"/><rect x="572.5" y="45" width="10" height="5" fill="#2a1712"/><rect x="582.5" y="45" width="2.5" height="5" fill="#2a1712"/><rect x="585" y="45" width="2.5" height="5" fill="#2a1712"/><rect x="560" y="50" width="30" height="5" fill="#2a1712"/><rect x="560" y="55" width="30" height="5" fill="#2a1712"/><rect x="562.5" y="60" width="2.5" height="5" fill="#2a1712"/><rect x="567.5" y="60" width="2.5" height="5" fill="#2a1712"/><rect x="577.5" y="60" width="2.5" height="5" fill="#2a1712"/><rect x="582.5" y="60" width="2.5" height="5" fill="#2a1712"/></g><g transform="translate(1.25 0)"><rect x="560" y="40" width="27.5" height="5" fill="#2a1712"/><rect x="560" y="45" width="10" height="5" fill="#2a1712"/><rect x="570" y="45" width="2.5" height="5" fill="#2a1712"/><rect x="572.5" y="45" width="10" height="5" fill="#2a1712"/><rect x="582.5" y="45" width="2.5" height="5" fill="#2a1712"/><rect x="585" y="45" width="2.5" height="5" fill="#2a1712"/><rect x="560" y="50" width="30" height="5" fill="#2a1712"/><rect x="560" y="55" width="30" height="5" fill="#2a1712"/><rect x="562.5" y="60" width="2.5" height="5" fill="#2a1712"/><rect x="567.5" y="60" width="2.5" height="5" fill="#2a1712"/><rect x="577.5" y="60" width="2.5" height="5" fill="#2a1712"/><rect x="582.5" y="60" width="2.5" height="5" fill="#2a1712"/></g><g transform="translate(0 -1.25)"><rect x="560" y="40" width="27.5" height="5" fill="#2a1712"/><rect x="560" y="45" width="10" height="5" fill="#2a1712"/><rect x="570" y="45" width="2.5" height="5" fill="#2a1712"/><rect x="572.5" y="45" width="10" height="5" fill="#2a1712"/><rect x="582.5" y="45" width="2.5" height="5" fill="#2a1712"/><rect x="585" y="45" width="2.5" height="5" fill="#2a1712"/><rect x="560" y="50" width="30" height="5" fill="#2a1712"/><rect x="560" y="55" width="30" height="5" fill="#2a1712"/><rect x="562.5" y="60" width="2.5" height="5" fill="#2a1712"/><rect x="567.5" y="60" width="2.5" height="5" fill="#2a1712"/><rect x="577.5" y="60" width="2.5" height="5" fill="#2a1712"/><rect x="582.5" y="60" width="2.5" height="5" fill="#2a1712"/></g><g transform="translate(0 1.25)"><rect x="560" y="40" width="27.5" height="5" fill="#2a1712"/><rect x="560" y="45" width="10" height="5" fill="#2a1712"/><rect x="570" y="45" width="2.5" height="5" fill="#2a1712"/><rect x="572.5" y="45" width="10" height="5" fill="#2a1712"/><rect x="582.5" y="45" width="2.5" height="5" fill="#2a1712"/><rect x="585" y="45" width="2.5" height="5" fill="#2a1712"/><rect x="560" y="50" width="30" height="5" fill="#2a1712"/><rect x="560" y="55" width="30" height="5" fill="#2a1712"/><rect x="562.5" y="60" width="2.5" height="5" fill="#2a1712"/><rect x="567.5" y="60" width="2.5" height="5" fill="#2a1712"/><rect x="577.5" y="60" width="2.5" height="5" fill="#2a1712"/><rect x="582.5" y="60" width="2.5" height="5" fill="#2a1712"/></g></g><rect x="560" y="40" width="27.5" height="5" fill="#d97757"/><rect x="560" y="45" width="10" height="5" fill="#d97757"/><rect x="570" y="45" width="2.5" height="5" fill="#000000"/><rect x="572.5" y="45" width="10" height="5" fill="#d97757"/><rect x="582.5" y="45" width="2.5" height="5" fill="#000000"/><rect x="585" y="45" width="2.5" height="5" fill="#d97757"/><rect x="560" y="50" width="30" height="5" fill="#d97757"/><rect x="560" y="55" width="30" height="5" fill="#d97757"/><rect x="562.5" y="60" width="2.5" height="5" fill="#d97757"/><rect x="567.5" y="60" width="2.5" height="5" fill="#d97757"/><rect x="577.5" y="60" width="2.5" height="5" fill="#d97757"/><rect x="582.5" y="60" width="2.5" height="5" fill="#d97757"/><animate attributeName="opacity" values="0;1" calcMode="discrete" dur="0.5s" begin="-0s" repeatCount="indefinite"/></g><g opacity="0"><rect x="587.5" y="32.5" width="2.5" height="2.5" fill="#f9c74f"/><rect x="585" y="35" width="7.5" height="2.5" fill="#f9c74f"/><rect x="587.5" y="37.5" width="2.5" height="2.5" fill="#f9c74f"/><animate attributeName="opacity" values="0;1;0" keyTimes="0;0.67;0.8" calcMode="discrete" dur="9s" begin="-0s" repeatCount="indefinite"/></g></g></svg>